<svg id="visual" viewBox="0 0 900 450" width="900" height="450" xmlns="http://www.w3.org/2000/svg" xmlns:xlink="http://www.w3.org/1999/xlink" version="1.1"><rect x="0" y="0" width="900" height="450" fill="#FFF"></rect><g transform="translate(440.7757218781595 209.80602084792915)"><path d="M30 -42.9C41.6 -32.9 55.5 -27.7 68.7 -15.6C81.9 -3.5 94.5 15.7 93 33.3C91.5 51 76 67.1 58.2 79.3C40.4 91.6 20.2 99.8 8.9 87.5C-2.4 75.2 -4.7 42.5 -16.7 28.4C-28.8 14.3 -50.5 18.9 -63.2 12.8C-75.8 6.7 -79.3 -10.1 -67.2 -14C-55.2 -17.9 -27.6 -9 -13.8 -18.3C0 -27.7 0 -55.3 4.6 -61.7C9.2 -68 18.4 -53 30 -42.9" fill="#373737"></path></g></svg>